<svg width="80" height="80" viewBox="0 0 80 80" fill="none" xmlns="http://www.w3.org/2000/svg">
<path d="M33.3333 72.667C35.4889 73.107 37.7111 73.3292 40 73.3337C58.41 73.3337 73.3333 58.4103 73.3333 40.0003C73.3333 21.5903 58.41 6.66699 40 6.66699C21.59 6.66699 6.66664 21.5903 6.66664 40.0003C6.67109 42.2892 6.89331 44.5115 7.33331 46.667" stroke="#2C7075" stroke-width="4.375" stroke-linecap="round" stroke-linejoin="round"/>
<path d="M40 50.0013C43.6833 50.0013 46.6666 47.7613 46.6666 45.0013C46.6666 42.2413 43.6833 40.0013 40 40.0013C36.3166 40.0013 33.3333 37.7613 33.3333 35.0013C33.3333 32.2413 36.3166 30.0013 40 30.0013M40 50.0013C37.1 50.0013 34.6266 48.6113 33.7133 46.668M40 50.0013V53.3346M40 30.0013C42.9 30.0013 45.3733 31.3913 46.2866 33.3346M40 30.0013V26.668M23.34 56.6613L9.41996 70.588M6.6733 58.4013L7.06663 68.7013C7.06663 71.1313 8.51663 72.6446 11.16 72.8346L21.5733 73.3246" stroke="#2C7075" stroke-width="4.375" stroke-linecap="round" stroke-linejoin="round"/>
</svg>
